<svg width="274" height="154" viewBox="0 0 274 154" fill="none" xmlns="http://www.w3.org/2000/svg">
<g clip-path="url(#clip0_147_290)">
<path d="M273.5 0.5V153.5H0.5V0.5H273.5Z" fill="#F7F4EF" stroke="black"/>
<path d="M15 32V122" stroke="#0A0A0A" stroke-width="0.8"/>
<path d="M36.7399 71V54.2H38.2039L49.7959 68.792H49.0279V54.2H50.7799V71H49.3159L37.7479 56.408H38.5159V71H36.7399ZM53.5753 71L61.2553 54.2H63.0073L70.6873 71H68.8153L61.7593 55.232H62.4793L55.4233 71H53.5753ZM56.5993 66.512L57.1273 65.072H66.8953L67.4233 66.512H56.5993ZM75.8867 71V55.736H69.9827V54.2H83.5667V55.736H77.6627V71H75.8867ZM82.8722 71L90.5522 54.2H92.3042L99.9842 71H98.1122L91.0562 55.232H91.7762L84.7202 71H82.8722ZM85.8962 66.512L86.4242 65.072H96.1922L96.7202 66.512H85.8962ZM102.763 71V54.2H104.539V69.464H113.947V71H102.763ZM116.896 71V54.2H118.672V71H116.896ZM121.45 71L129.13 54.2H130.882L138.562 71H136.69L129.634 55.232H130.354L123.298 71H121.45ZM124.474 66.512L125.002 65.072H134.77L135.298 66.512H124.474ZM147.623 71V54.2H153.911C155.335 54.2 156.559 54.432 157.583 54.896C158.607 55.344 159.391 56 159.935 56.864C160.495 57.712 160.775 58.744 160.775 59.96C160.775 61.144 160.495 62.168 159.935 63.032C159.391 63.88 158.607 64.536 157.583 65C156.559 65.464 155.335 65.696 153.911 65.696H148.607L149.399 64.856V71H147.623ZM149.399 65L148.607 64.136H153.863C155.543 64.136 156.815 63.776 157.679 63.056C158.559 62.32 158.999 61.288 158.999 59.96C158.999 58.616 158.559 57.576 157.679 56.84C156.815 56.104 155.543 55.736 153.863 55.736H148.607L149.399 54.896V65ZM164.615 71V54.2H170.903C173.031 54.2 174.703 54.712 175.919 55.736C177.151 56.744 177.767 58.152 177.767 59.96C177.767 61.144 177.487 62.168 176.927 63.032C176.383 63.88 175.599 64.536 174.575 65C173.551 65.448 172.327 65.672 170.903 65.672H165.599L166.391 64.856V71H164.615ZM176.087 71L171.767 64.904H173.687L178.031 71H176.087ZM166.391 65L165.599 64.16H170.855C172.535 64.16 173.807 63.792 174.671 63.056C175.551 62.32 175.991 61.288 175.991 59.96C175.991 58.616 175.551 57.576 174.671 56.84C173.807 56.104 172.535 55.736 170.855 55.736H165.599L166.391 54.896V65ZM181.959 71V54.2H183.735V71H181.959ZM196.497 71.144C195.233 71.144 194.065 70.936 192.993 70.52C191.921 70.088 190.993 69.488 190.209 68.72C189.425 67.952 188.809 67.048 188.361 66.008C187.929 64.968 187.713 63.832 187.713 62.6C187.713 61.368 187.929 60.232 188.361 59.192C188.809 58.152 189.425 57.248 190.209 56.48C191.009 55.712 191.945 55.12 193.017 54.704C194.089 54.272 195.257 54.056 196.521 54.056C197.737 54.056 198.881 54.264 199.953 54.68C201.025 55.08 201.929 55.688 202.665 56.504L201.537 57.632C200.849 56.928 200.089 56.424 199.257 56.12C198.425 55.8 197.529 55.64 196.569 55.64C195.561 55.64 194.625 55.816 193.761 56.168C192.897 56.504 192.145 56.992 191.505 57.632C190.865 58.256 190.361 58.992 189.993 59.84C189.641 60.672 189.465 61.592 189.465 62.6C189.465 63.608 189.641 64.536 189.993 65.384C190.361 66.216 190.865 66.952 191.505 67.592C192.145 68.216 192.897 68.704 193.761 69.056C194.625 69.392 195.561 69.56 196.569 69.56C197.529 69.56 198.425 69.4 199.257 69.08C200.089 68.76 200.849 68.248 201.537 67.544L202.665 68.672C201.929 69.488 201.025 70.104 199.953 70.52C198.881 70.936 197.729 71.144 196.497 71.144ZM212.717 71.144C211.453 71.144 210.277 70.936 209.189 70.52C208.117 70.088 207.181 69.488 206.381 68.72C205.597 67.936 204.981 67.032 204.533 66.008C204.101 64.968 203.885 63.832 203.885 62.6C203.885 61.368 204.101 60.24 204.533 59.216C204.981 58.176 205.597 57.272 206.381 56.504C207.181 55.72 208.117 55.12 209.189 54.704C210.261 54.272 211.437 54.056 212.717 54.056C213.981 54.056 215.149 54.272 216.221 54.704C217.293 55.12 218.221 55.712 219.005 56.48C219.805 57.248 220.421 58.152 220.853 59.192C221.301 60.232 221.525 61.368 221.525 62.6C221.525 63.832 221.301 64.968 220.853 66.008C220.421 67.048 219.805 67.952 219.005 68.72C218.221 69.488 217.293 70.088 216.221 70.52C215.149 70.936 213.981 71.144 212.717 71.144ZM212.717 69.56C213.725 69.56 214.653 69.392 215.501 69.056C216.365 68.704 217.109 68.216 217.733 67.592C218.373 66.952 218.869 66.216 219.221 65.384C219.573 64.536 219.749 63.608 219.749 62.6C219.749 61.592 219.573 60.672 219.221 59.84C218.869 58.992 218.373 58.256 217.733 57.632C217.109 56.992 216.365 56.504 215.501 56.168C214.653 55.816 213.725 55.64 212.717 55.64C211.709 55.64 210.773 55.816 209.909 56.168C209.045 56.504 208.293 56.992 207.653 57.632C207.029 58.256 206.533 58.992 206.165 59.84C205.813 60.672 205.637 61.592 205.637 62.6C205.637 63.592 205.813 64.512 206.165 65.36C206.533 66.208 207.029 66.952 207.653 67.592C208.293 68.216 209.045 68.704 209.909 69.056C210.773 69.392 211.709 69.56 212.717 69.56ZM225.506 71V54.2H231.794C233.218 54.2 234.442 54.432 235.466 54.896C236.49 55.344 237.274 56 237.818 56.864C238.378 57.712 238.658 58.744 238.658 59.96C238.658 61.144 238.378 62.168 237.818 63.032C237.274 63.88 236.49 64.536 235.466 65C234.442 65.464 233.218 65.696 231.794 65.696H226.49L227.282 64.856V71H225.506ZM227.282 65L226.49 64.136H231.746C233.426 64.136 234.698 63.776 235.562 63.056C236.442 62.32 236.882 61.288 236.882 59.96C236.882 58.616 236.442 57.576 235.562 56.84C234.698 56.104 233.426 55.736 231.746 55.736H226.49L227.282 54.896V65Z" fill="#0A0A0A"/>
<path opacity="0.4" d="M25 82H249" stroke="#0A0A0A" stroke-width="0.5"/>
<path d="M64.9934 100.078C64.3174 100.078 63.6674 99.9697 63.0434 99.753C62.4281 99.5277 61.9514 99.2417 61.6134 98.895L61.9904 98.154C62.3111 98.466 62.7401 98.7303 63.2774 98.947C63.8234 99.155 64.3954 99.259 64.9934 99.259C65.5654 99.259 66.0291 99.1897 66.3844 99.051C66.7484 98.9037 67.0128 98.7087 67.1774 98.466C67.3508 98.2233 67.4374 97.9547 67.4374 97.66C67.4374 97.3047 67.3334 97.0187 67.1254 96.802C66.9261 96.5853 66.6618 96.4163 66.3324 96.295C66.0031 96.165 65.6391 96.0523 65.2404 95.957C64.8418 95.8617 64.4431 95.762 64.0444 95.658C63.6458 95.5453 63.2774 95.398 62.9394 95.216C62.6101 95.034 62.3414 94.7957 62.1334 94.501C61.9341 94.1977 61.8344 93.8033 61.8344 93.318C61.8344 92.8673 61.9514 92.4557 62.1854 92.083C62.4281 91.7017 62.7964 91.3983 63.2904 91.173C63.7844 90.939 64.4171 90.822 65.1884 90.822C65.6998 90.822 66.2068 90.8957 66.7094 91.043C67.2121 91.1817 67.6454 91.3767 68.0094 91.628L67.6844 92.395C67.2944 92.135 66.8784 91.9443 66.4364 91.823C66.0031 91.7017 65.5828 91.641 65.1754 91.641C64.6294 91.641 64.1788 91.7147 63.8234 91.862C63.4681 92.0093 63.2038 92.2087 63.0304 92.46C62.8658 92.7027 62.7834 92.98 62.7834 93.292C62.7834 93.6473 62.8831 93.9333 63.0824 94.15C63.2904 94.3667 63.5591 94.5357 63.8884 94.657C64.2264 94.7783 64.5948 94.8867 64.9934 94.982C65.3921 95.0773 65.7864 95.1813 66.1764 95.294C66.5751 95.4067 66.9391 95.554 67.2684 95.736C67.6064 95.9093 67.8751 96.1433 68.0744 96.438C68.2824 96.7327 68.3864 97.1183 68.3864 97.595C68.3864 98.037 68.2651 98.4487 68.0224 98.83C67.7798 99.2027 67.4071 99.506 66.9044 99.74C66.4104 99.9653 65.7734 100.078 64.9934 100.078ZM74.4605 100.078C73.7758 100.078 73.1388 99.9653 72.5495 99.74C71.9688 99.506 71.4618 99.181 71.0285 98.765C70.6038 98.3403 70.2702 97.8507 70.0275 97.296C69.7935 96.7327 69.6765 96.1173 69.6765 95.45C69.6765 94.7827 69.7935 94.1717 70.0275 93.617C70.2702 93.0537 70.6038 92.564 71.0285 92.148C71.4618 91.7233 71.9688 91.3983 72.5495 91.173C73.1302 90.939 73.7672 90.822 74.4605 90.822C75.1452 90.822 75.7778 90.939 76.3585 91.173C76.9392 91.3983 77.4418 91.719 77.8665 92.135C78.2998 92.551 78.6335 93.0407 78.8675 93.604C79.1102 94.1673 79.2315 94.7827 79.2315 95.45C79.2315 96.1173 79.1102 96.7327 78.8675 97.296C78.6335 97.8593 78.2998 98.349 77.8665 98.765C77.4418 99.181 76.9392 99.506 76.3585 99.74C75.7778 99.9653 75.1452 100.078 74.4605 100.078ZM74.4605 99.22C75.0065 99.22 75.5092 99.129 75.9685 98.947C76.4365 98.7563 76.8395 98.492 77.1775 98.154C77.5242 97.8073 77.7928 97.4087 77.9835 96.958C78.1742 96.4987 78.2695 95.996 78.2695 95.45C78.2695 94.904 78.1742 94.4057 77.9835 93.955C77.7928 93.4957 77.5242 93.097 77.1775 92.759C76.8395 92.4123 76.4365 92.148 75.9685 91.966C75.5092 91.7753 75.0065 91.68 74.4605 91.68C73.9145 91.68 73.4075 91.7753 72.9395 91.966C72.4715 92.148 72.0642 92.4123 71.7175 92.759C71.3795 93.097 71.1108 93.4957 70.9115 93.955C70.7208 94.4057 70.6255 94.904 70.6255 95.45C70.6255 95.9873 70.7208 96.4857 70.9115 96.945C71.1108 97.4043 71.3795 97.8073 71.7175 98.154C72.0642 98.492 72.4715 98.7563 72.9395 98.947C73.4075 99.129 73.9145 99.22 74.4605 99.22ZM81.3878 100V90.9H87.6278V91.732H82.3498V100H81.3878ZM82.2458 96.139V95.307H87.0558V96.139H82.2458ZM91.4458 100V91.732H88.2478V90.9H95.6058V91.732H92.4078V100H91.4458ZM99.1462 100L96.0782 90.9H97.0662L99.9392 99.467H99.4452L102.409 90.9H103.293L106.218 99.467H105.75L108.649 90.9H109.572L106.504 100H105.49L102.695 91.875H102.955L100.147 100H99.1462ZM109.601 100L113.761 90.9H114.71L118.87 100H117.856L114.034 91.459H114.424L110.602 100H109.601ZM111.239 97.569L111.525 96.789H116.816L117.102 97.569H111.239ZM120.375 100V90.9H123.781C124.934 90.9 125.839 91.1773 126.498 91.732C127.165 92.278 127.499 93.0407 127.499 94.02C127.499 94.6613 127.347 95.216 127.044 95.684C126.749 96.1433 126.325 96.4987 125.77 96.75C125.215 96.9927 124.552 97.114 123.781 97.114H120.908L121.337 96.672V100H120.375ZM126.589 100L124.249 96.698H125.289L127.642 100H126.589ZM121.337 96.75L120.908 96.295H123.755C124.665 96.295 125.354 96.0957 125.822 95.697C126.299 95.2983 126.537 94.7393 126.537 94.02C126.537 93.292 126.299 92.7287 125.822 92.33C125.354 91.9313 124.665 91.732 123.755 91.732H120.908L121.337 91.277V96.75ZM129.77 100V90.9H136.01V91.732H130.732V99.168H136.205V100H129.77ZM130.628 95.788V94.969H135.438V95.788H130.628ZM141.868 100V90.9H148.108V91.732H142.83V99.168H148.303V100H141.868ZM142.726 95.788V94.969H147.536V95.788H142.726ZM150.565 100V90.9H151.358L157.637 98.804H157.221V90.9H158.17V100H157.377L151.111 92.096H151.527V100H150.565ZM165.131 100.078C164.437 100.078 163.796 99.9653 163.207 99.74C162.626 99.506 162.119 99.181 161.686 98.765C161.261 98.349 160.927 97.8593 160.685 97.296C160.451 96.7327 160.334 96.1173 160.334 95.45C160.334 94.7827 160.451 94.1673 160.685 93.604C160.927 93.0407 161.265 92.551 161.699 92.135C162.132 91.719 162.639 91.3983 163.22 91.173C163.809 90.939 164.45 90.822 165.144 90.822C165.837 90.822 166.47 90.9303 167.042 91.147C167.622 91.3637 168.116 91.693 168.524 92.135L167.926 92.746C167.544 92.3647 167.124 92.0917 166.665 91.927C166.205 91.7623 165.711 91.68 165.183 91.68C164.619 91.68 164.099 91.7753 163.623 91.966C163.155 92.148 162.743 92.4123 162.388 92.759C162.041 93.097 161.768 93.4957 161.569 93.955C161.378 94.4057 161.283 94.904 161.283 95.45C161.283 95.9873 161.378 96.4857 161.569 96.945C161.768 97.4043 162.041 97.8073 162.388 98.154C162.743 98.492 163.155 98.7563 163.623 98.947C164.099 99.129 164.615 99.22 165.17 99.22C165.69 99.22 166.179 99.142 166.639 98.986C167.107 98.83 167.536 98.5657 167.926 98.193L168.472 98.921C168.038 99.3023 167.531 99.5927 166.951 99.792C166.37 99.9827 165.763 100.078 165.131 100.078ZM168.472 98.921L167.549 98.804V95.45H168.472V98.921ZM171.194 100V90.9H172.156V100H171.194ZM175.117 100V90.9H175.91L182.189 98.804H181.773V90.9H182.722V100H181.929L175.663 92.096H176.079V100H175.117ZM185.692 100V90.9H191.932V91.732H186.654V99.168H192.127V100H185.692ZM186.55 95.788V94.969H191.36V95.788H186.55ZM194.389 100V90.9H200.629V91.732H195.351V99.168H200.824V100H194.389ZM195.247 95.788V94.969H200.057V95.788H195.247ZM203.085 100V90.9H206.491C207.644 90.9 208.549 91.1773 209.208 91.732C209.875 92.278 210.209 93.0407 210.209 94.02C210.209 94.6613 210.057 95.216 209.754 95.684C209.459 96.1433 209.035 96.4987 208.48 96.75C207.925 96.9927 207.262 97.114 206.491 97.114H203.618L204.047 96.672V100H203.085ZM209.299 100L206.959 96.698H207.999L210.352 100H209.299ZM204.047 96.75L203.618 96.295H206.465C207.375 96.295 208.064 96.0957 208.532 95.697C209.009 95.2983 209.247 94.7393 209.247 94.02C209.247 93.292 209.009 92.7287 208.532 92.33C208.064 91.9313 207.375 91.732 206.465 91.732H203.618L204.047 91.277V96.75Z" fill="#0A0A0A"/>
</g>
<rect x="0.5" y="0.5" width="273" height="153" stroke="black"/>
<defs>
<clipPath id="clip0_147_290">
<rect width="274" height="154" fill="white"/>
</clipPath>
</defs>
</svg>
