<svg width="255" height="147" viewBox="0 0 255 147" fill="none" xmlns="http://www.w3.org/2000/svg">
<g clip-path="url(#clip0_147_290)">
<path d="M-1 0H261V147H-1V0Z" fill="#F7F4EF"/>
<path d="M13.9598 30.5454V116.454" stroke="black" stroke-width="0.8"/>
<path d="M27.7399 68.8182V52.0182H29.2039L40.7959 66.6102H40.0279V52.0182H41.7799V68.8182H40.3159L28.7479 54.2262H29.5159V68.8182H27.7399ZM44.5753 68.8182L52.2553 52.0182H54.0073L61.6873 68.8182H59.8153L52.7593 53.0502H53.4793L46.4233 68.8182H44.5753ZM47.5993 64.3302L48.1273 62.8902H57.8953L58.4233 64.3302H47.5993ZM66.8867 68.8182V53.5542H60.9827V52.0182H74.5667V53.5542H68.6627V68.8182H66.8867ZM73.8722 68.8182L81.5522 52.0182H83.3042L90.9842 68.8182H89.1122L82.0562 53.0502H82.7762L75.7202 68.8182H73.8722ZM76.8962 64.3302L77.4242 62.8902H87.1922L87.7202 64.3302H76.8962ZM93.7633 68.8182V52.0182H95.5393V67.2822H104.947V68.8182H93.7633ZM107.896 68.8182V52.0182H109.672V68.8182H107.896ZM112.45 68.8182L120.13 52.0182H121.882L129.562 68.8182H127.69L120.634 53.0502H121.354L114.298 68.8182H112.45ZM115.474 64.3302L116.002 62.8902H125.77L126.298 64.3302H115.474ZM138.623 68.8182V52.0182H144.911C146.335 52.0182 147.559 52.2502 148.583 52.7142C149.607 53.1622 150.391 53.8182 150.935 54.6822C151.495 55.5302 151.775 56.5622 151.775 57.7782C151.775 58.9622 151.495 59.9862 150.935 60.8502C150.391 61.6982 149.607 62.3542 148.583 62.8182C147.559 63.2822 146.335 63.5142 144.911 63.5142H139.607L140.399 62.6742V68.8182H138.623ZM140.399 62.8182L139.607 61.9542H144.863C146.543 61.9542 147.815 61.5942 148.679 60.8742C149.559 60.1382 149.999 59.1062 149.999 57.7782C149.999 56.4342 149.559 55.3942 148.679 54.6582C147.815 53.9222 146.543 53.5542 144.863 53.5542H139.607L140.399 52.7142V62.8182ZM155.615 68.8182V52.0182H161.903C164.031 52.0182 165.703 52.5302 166.919 53.5542C168.151 54.5622 168.767 55.9702 168.767 57.7782C168.767 58.9622 168.487 59.9862 167.927 60.8502C167.383 61.6982 166.599 62.3542 165.575 62.8182C164.551 63.2662 163.327 63.4902 161.903 63.4902H156.599L157.391 62.6742V68.8182H155.615ZM167.087 68.8182L162.767 62.7222H164.687L169.031 68.8182H167.087ZM157.391 62.8182L156.599 61.9782H161.855C163.535 61.9782 164.807 61.6102 165.671 60.8742C166.551 60.1382 166.991 59.1062 166.991 57.7782C166.991 56.4342 166.551 55.3942 165.671 54.6582C164.807 53.9222 163.535 53.5542 161.855 53.5542H156.599L157.391 52.7142V62.8182ZM172.959 68.8182V52.0182H174.735V68.8182H172.959ZM187.497 68.9622C186.233 68.9622 185.065 68.7542 183.993 68.3382C182.921 67.9062 181.993 67.3062 181.209 66.5382C180.425 65.7702 179.809 64.8662 179.361 63.8262C178.929 62.7862 178.713 61.6502 178.713 60.4182C178.713 59.1862 178.929 58.0502 179.361 57.0102C179.809 55.9702 180.425 55.0662 181.209 54.2982C182.009 53.5302 182.945 52.9382 184.017 52.5222C185.089 52.0902 186.257 51.8742 187.521 51.8742C188.737 51.8742 189.881 52.0822 190.953 52.4982C192.025 52.8982 192.929 53.5062 193.665 54.3222L192.537 55.4502C191.849 54.7462 191.089 54.2422 190.257 53.9382C189.425 53.6182 188.529 53.4582 187.569 53.4582C186.561 53.4582 185.625 53.6342 184.761 53.9862C183.897 54.3222 183.145 54.8102 182.505 55.4502C181.865 56.0742 181.361 56.8102 180.993 57.6582C180.641 58.4902 180.465 59.4102 180.465 60.4182C180.465 61.4262 180.641 62.3542 180.993 63.2022C181.361 64.0342 181.865 64.7702 182.505 65.4102C183.145 66.0342 183.897 66.5222 184.761 66.8742C185.625 67.2102 186.561 67.3782 187.569 67.3782C188.529 67.3782 189.425 67.2182 190.257 66.8982C191.089 66.5782 191.849 66.0662 192.537 65.3622L193.665 66.4902C192.929 67.3062 192.025 67.9222 190.953 68.3382C189.881 68.7542 188.729 68.9622 187.497 68.9622ZM203.717 68.9622C202.453 68.9622 201.277 68.7542 200.189 68.3382C199.117 67.9062 198.181 67.3062 197.381 66.5382C196.597 65.7542 195.981 64.8502 195.533 63.8262C195.101 62.7862 194.885 61.6502 194.885 60.4182C194.885 59.1862 195.101 58.0582 195.533 57.0342C195.981 55.9942 196.597 55.0902 197.381 54.3222C198.181 53.5382 199.117 52.9382 200.189 52.5222C201.261 52.0902 202.437 51.8742 203.717 51.8742C204.981 51.8742 206.149 52.0902 207.221 52.5222C208.293 52.9382 209.221 53.5302 210.005 54.2982C210.805 55.0662 211.421 55.9702 211.853 57.0102C212.301 58.0502 212.525 59.1862 212.525 60.4182C212.525 61.6502 212.301 62.7862 211.853 63.8262C211.421 64.8662 210.805 65.7702 210.005 66.5382C209.221 67.3062 208.293 67.9062 207.221 68.3382C206.149 68.7542 204.981 68.9622 203.717 68.9622ZM203.717 67.3782C204.725 67.3782 205.653 67.2102 206.501 66.8742C207.365 66.5222 208.109 66.0342 208.733 65.4102C209.373 64.7702 209.869 64.0342 210.221 63.2022C210.573 62.3542 210.749 61.4262 210.749 60.4182C210.749 59.4102 210.573 58.4902 210.221 57.6582C209.869 56.8102 209.373 56.0742 208.733 55.4502C208.109 54.8102 207.365 54.3222 206.501 53.9862C205.653 53.6342 204.725 53.4582 203.717 53.4582C202.709 53.4582 201.773 53.6342 200.909 53.9862C200.045 54.3222 199.293 54.8102 198.653 55.4502C198.029 56.0742 197.533 56.8102 197.165 57.6582C196.813 58.4902 196.637 59.4102 196.637 60.4182C196.637 61.4102 196.813 62.3302 197.165 63.1782C197.533 64.0262 198.029 64.7702 198.653 65.4102C199.293 66.0342 200.045 66.5222 200.909 66.8742C201.773 67.2102 202.709 67.3782 203.717 67.3782ZM216.506 68.8182V52.0182H222.794C224.218 52.0182 225.442 52.2502 226.466 52.7142C227.49 53.1622 228.274 53.8182 228.818 54.6822C229.378 55.5302 229.658 56.5622 229.658 57.7782C229.658 58.9622 229.378 59.9862 228.818 60.8502C228.274 61.6982 227.49 62.3542 226.466 62.8182C225.442 63.2822 224.218 63.5142 222.794 63.5142H217.49L218.282 62.6742V68.8182H216.506ZM218.282 62.8182L217.49 61.9542H222.746C224.426 61.9542 225.698 61.5942 226.562 60.8742C227.442 60.1382 227.882 59.1062 227.882 57.7782C227.882 56.4342 227.442 55.3942 226.562 54.6582C225.698 53.9222 224.426 53.5542 222.746 53.5542H217.49L218.282 52.7142V62.8182Z" fill="black"/>
<path opacity="0.4" d="M16 78.2727H240" stroke="black" stroke-width="0.5"/>
<path d="M55.9934 96.1234C55.3174 96.1234 54.6674 96.0151 54.0434 95.7984C53.4281 95.5731 52.9514 95.2871 52.6134 94.9404L52.9904 94.1994C53.3111 94.5114 53.7401 94.7757 54.2774 94.9924C54.8234 95.2004 55.3954 95.3044 55.9934 95.3044C56.5654 95.3044 57.0291 95.2351 57.3844 95.0964C57.7484 94.9491 58.0128 94.7541 58.1774 94.5114C58.3508 94.2687 58.4374 94.0001 58.4374 93.7054C58.4374 93.3501 58.3334 93.0641 58.1254 92.8474C57.9261 92.6307 57.6618 92.4617 57.3324 92.3404C57.0031 92.2104 56.6391 92.0977 56.2404 92.0024C55.8418 91.9071 55.4431 91.8074 55.0444 91.7034C54.6458 91.5907 54.2774 91.4434 53.9394 91.2614C53.6101 91.0794 53.3414 90.8411 53.1334 90.5464C52.9341 90.2431 52.8344 89.8487 52.8344 89.3634C52.8344 88.9127 52.9514 88.5011 53.1854 88.1284C53.4281 87.7471 53.7964 87.4437 54.2904 87.2184C54.7844 86.9844 55.4171 86.8674 56.1884 86.8674C56.6998 86.8674 57.2068 86.9411 57.7094 87.0884C58.2121 87.2271 58.6454 87.4221 59.0094 87.6734L58.6844 88.4404C58.2944 88.1804 57.8784 87.9897 57.4364 87.8684C57.0031 87.7471 56.5828 87.6864 56.1754 87.6864C55.6294 87.6864 55.1788 87.7601 54.8234 87.9074C54.4681 88.0547 54.2038 88.2541 54.0304 88.5054C53.8658 88.7481 53.7834 89.0254 53.7834 89.3374C53.7834 89.6927 53.8831 89.9787 54.0824 90.1954C54.2904 90.4121 54.5591 90.5811 54.8884 90.7024C55.2264 90.8237 55.5948 90.9321 55.9934 91.0274C56.3921 91.1227 56.7864 91.2267 57.1764 91.3394C57.5751 91.4521 57.9391 91.5994 58.2684 91.7814C58.6064 91.9547 58.8751 92.1887 59.0744 92.4834C59.2824 92.7781 59.3864 93.1637 59.3864 93.6404C59.3864 94.0824 59.2651 94.4941 59.0224 94.8754C58.7798 95.2481 58.4071 95.5514 57.9044 95.7854C57.4104 96.0107 56.7734 96.1234 55.9934 96.1234ZM65.4605 96.1234C64.7758 96.1234 64.1388 96.0107 63.5495 95.7854C62.9688 95.5514 62.4618 95.2264 62.0285 94.8104C61.6038 94.3857 61.2702 93.8961 61.0275 93.3414C60.7935 92.7781 60.6765 92.1627 60.6765 91.4954C60.6765 90.8281 60.7935 90.2171 61.0275 89.6624C61.2702 89.0991 61.6038 88.6094 62.0285 88.1934C62.4618 87.7687 62.9688 87.4437 63.5495 87.2184C64.1302 86.9844 64.7672 86.8674 65.4605 86.8674C66.1452 86.8674 66.7778 86.9844 67.3585 87.2184C67.9392 87.4437 68.4418 87.7644 68.8665 88.1804C69.2998 88.5964 69.6335 89.0861 69.8675 89.6494C70.1102 90.2127 70.2315 90.8281 70.2315 91.4954C70.2315 92.1627 70.1102 92.7781 69.8675 93.3414C69.6335 93.9047 69.2998 94.3944 68.8665 94.8104C68.4418 95.2264 67.9392 95.5514 67.3585 95.7854C66.7778 96.0107 66.1452 96.1234 65.4605 96.1234ZM65.4605 95.2654C66.0065 95.2654 66.5092 95.1744 66.9685 94.9924C67.4365 94.8017 67.8395 94.5374 68.1775 94.1994C68.5242 93.8527 68.7928 93.4541 68.9835 93.0034C69.1742 92.5441 69.2695 92.0414 69.2695 91.4954C69.2695 90.9494 69.1742 90.4511 68.9835 90.0004C68.7928 89.5411 68.5242 89.1424 68.1775 88.8044C67.8395 88.4577 67.4365 88.1934 66.9685 88.0114C66.5092 87.8207 66.0065 87.7254 65.4605 87.7254C64.9145 87.7254 64.4075 87.8207 63.9395 88.0114C63.4715 88.1934 63.0642 88.4577 62.7175 88.8044C62.3795 89.1424 62.1108 89.5411 61.9115 90.0004C61.7208 90.4511 61.6255 90.9494 61.6255 91.4954C61.6255 92.0327 61.7208 92.5311 61.9115 92.9904C62.1108 93.4497 62.3795 93.8527 62.7175 94.1994C63.0642 94.5374 63.4715 94.8017 63.9395 94.9924C64.4075 95.1744 64.9145 95.2654 65.4605 95.2654ZM72.3878 96.0454V86.9454H78.6278V87.7774H73.3498V96.0454H72.3878ZM73.2458 92.1844V91.3524H78.0558V92.1844H73.2458ZM82.4458 96.0454V87.7774H79.2478V86.9454H86.6058V87.7774H83.4078V96.0454H82.4458ZM90.1462 96.0454L87.0782 86.9454H88.0662L90.9392 95.5124H90.4452L93.4092 86.9454H94.2932L97.2182 95.5124H96.7502L99.6492 86.9454H100.572L97.5042 96.0454H96.4902L93.6952 87.9204H93.9552L91.1472 96.0454H90.1462ZM100.601 96.0454L104.761 86.9454H105.71L109.87 96.0454H108.856L105.034 87.5044H105.424L101.602 96.0454H100.601ZM102.239 93.6144L102.525 92.8344H107.816L108.102 93.6144H102.239ZM111.375 96.0454V86.9454H114.781C115.934 86.9454 116.839 87.2227 117.498 87.7774C118.165 88.3234 118.499 89.0861 118.499 90.0654C118.499 90.7067 118.347 91.2614 118.044 91.7294C117.749 92.1887 117.325 92.5441 116.77 92.7954C116.215 93.0381 115.552 93.1594 114.781 93.1594H111.908L112.337 92.7174V96.0454H111.375ZM117.589 96.0454L115.249 92.7434H116.289L118.642 96.0454H117.589ZM112.337 92.7954L111.908 92.3404H114.755C115.665 92.3404 116.354 92.1411 116.822 91.7424C117.299 91.3437 117.537 90.7847 117.537 90.0654C117.537 89.3374 117.299 88.7741 116.822 88.3754C116.354 87.9767 115.665 87.7774 114.755 87.7774H111.908L112.337 87.3224V92.7954ZM120.77 96.0454V86.9454H127.01V87.7774H121.732V95.2134H127.205V96.0454H120.77ZM121.628 91.8334V91.0144H126.438V91.8334H121.628ZM132.868 96.0454V86.9454H139.108V87.7774H133.83V95.2134H139.303V96.0454H132.868ZM133.726 91.8334V91.0144H138.536V91.8334H133.726ZM141.565 96.0454V86.9454H142.358L148.637 94.8494H148.221V86.9454H149.17V96.0454H148.377L142.111 88.1414H142.527V96.0454H141.565ZM156.131 96.1234C155.437 96.1234 154.796 96.0107 154.207 95.7854C153.626 95.5514 153.119 95.2264 152.686 94.8104C152.261 94.3944 151.927 93.9047 151.685 93.3414C151.451 92.7781 151.334 92.1627 151.334 91.4954C151.334 90.8281 151.451 90.2127 151.685 89.6494C151.927 89.0861 152.265 88.5964 152.699 88.1804C153.132 87.7644 153.639 87.4437 154.22 87.2184C154.809 86.9844 155.45 86.8674 156.144 86.8674C156.837 86.8674 157.47 86.9757 158.042 87.1924C158.622 87.4091 159.116 87.7384 159.524 88.1804L158.926 88.7914C158.544 88.4101 158.124 88.1371 157.665 87.9724C157.205 87.8077 156.711 87.7254 156.183 87.7254C155.619 87.7254 155.099 87.8207 154.623 88.0114C154.155 88.1934 153.743 88.4577 153.388 88.8044C153.041 89.1424 152.768 89.5411 152.569 90.0004C152.378 90.4511 152.283 90.9494 152.283 91.4954C152.283 92.0327 152.378 92.5311 152.569 92.9904C152.768 93.4497 153.041 93.8527 153.388 94.1994C153.743 94.5374 154.155 94.8017 154.623 94.9924C155.099 95.1744 155.615 95.2654 156.17 95.2654C156.69 95.2654 157.179 95.1874 157.639 95.0314C158.107 94.8754 158.536 94.6111 158.926 94.2384L159.472 94.9664C159.038 95.3477 158.531 95.6381 157.951 95.8374C157.37 96.0281 156.763 96.1234 156.131 96.1234ZM159.472 94.9664L158.549 94.8494V91.4954H159.472V94.9664ZM162.194 96.0454V86.9454H163.156V96.0454H162.194ZM166.117 96.0454V86.9454H166.91L173.189 94.8494H172.773V86.9454H173.722V96.0454H172.929L166.663 88.1414H167.079V96.0454H166.117ZM176.692 96.0454V86.9454H182.932V87.7774H177.654V95.2134H183.127V96.0454H176.692ZM177.55 91.8334V91.0144H182.36V91.8334H177.55ZM185.389 96.0454V86.9454H191.629V87.7774H186.351V95.2134H191.824V96.0454H185.389ZM186.247 91.8334V91.0144H191.057V91.8334H186.247ZM194.085 96.0454V86.9454H197.491C198.644 86.9454 199.549 87.2227 200.208 87.7774C200.875 88.3234 201.209 89.0861 201.209 90.0654C201.209 90.7067 201.057 91.2614 200.754 91.7294C200.459 92.1887 200.035 92.5441 199.48 92.7954C198.925 93.0381 198.262 93.1594 197.491 93.1594H194.618L195.047 92.7174V96.0454H194.085ZM200.299 96.0454L197.959 92.7434H198.999L201.352 96.0454H200.299ZM195.047 92.7954L194.618 92.3404H197.465C198.375 92.3404 199.064 92.1411 199.532 91.7424C200.009 91.3437 200.247 90.7847 200.247 90.0654C200.247 89.3374 200.009 88.7741 199.532 88.3754C199.064 87.9767 198.375 87.7774 197.465 87.7774H194.618L195.047 87.3224V92.7954Z" fill="black"/>
</g>
<defs>
<clipPath id="clip0_147_290">
<rect width="255" height="147" fill="white"/>
</clipPath>
</defs>
</svg>
